<svg width="491" height="37" viewBox="0 0 491 37" fill="none" xmlns="http://www.w3.org/2000/svg">
<path d="M5.81214 12.8349L5.75599 13.0812V13.1626C5.44215 14.3023 5.4027 15.5002 5.64102 16.6581C5.87934 17.816 6.38834 18.901 7.12677 19.8241C7.8213 20.7357 8.7237 21.4682 9.7587 21.9599C10.7937 22.4518 11.9316 22.6887 13.0769 22.6516H26.5668C26.7226 22.6482 26.8766 22.684 27.0151 22.7554C27.1537 22.8269 27.2725 22.932 27.3602 23.0609C27.4571 23.1886 27.5179 23.3397 27.5375 23.4987C27.5569 23.6579 27.534 23.8195 27.4706 23.9665C27.4326 24.1114 27.3688 24.3741 27.2765 24.7454C27.1841 25.1167 27.0955 25.526 26.9905 25.9661C26.8854 26.4063 26.7568 26.9532 26.592 27.6107C26.5274 27.8431 26.387 28.0474 26.1936 28.1914C26.0001 28.3352 25.7643 28.4105 25.5232 28.4058H2.02832C1.97398 28.6835 1.84122 29.264 1.62991 30.1466C1.41861 31.0294 1.18559 31.9989 0.93081 33.0554C0.67543 34.1059 0.365865 35.4098 0 36.9892H26.7295C28.5403 37.0201 30.3054 36.4181 31.7196 35.2866C33.133 34.1564 34.1424 32.5991 34.5974 30.8475C34.6354 30.6284 34.7443 30.15 34.9272 29.4219C35.1101 28.6938 35.3076 27.8934 35.5159 27.0367C35.7241 26.18 35.9089 25.4318 36.0592 24.8015C36.2095 24.1712 36.2927 23.8361 36.2927 23.7999C36.3077 23.7751 36.3171 23.7474 36.3202 23.7186C36.62 22.5817 36.6522 21.3908 36.4144 20.2394C36.1764 19.0879 35.6749 18.0071 34.9489 17.0821C34.2706 16.1551 33.3772 15.407 32.3453 14.9022C31.3135 14.3973 30.1744 14.1507 29.0263 14.1841H15.6235C15.4696 14.1886 15.3171 14.1561 15.1786 14.089C15.0402 14.0218 14.9196 13.9221 14.828 13.7984C14.7279 13.6725 14.6566 13.5264 14.6188 13.37C14.581 13.2136 14.5777 13.0507 14.6091 12.8928C14.6453 12.7443 14.7086 12.4855 14.801 12.1106C14.8934 11.7357 14.982 11.3299 15.0889 10.8897L15.1269 10.7266H6.34277C6.10188 11.71 5.92262 12.4165 5.81214 12.8349Z" fill="#F90E13"/>
<path d="M40.4534 6.74911C40.6635 5.87249 40.8964 4.91776 41.1524 3.88417C41.4085 2.85057 41.7185 1.5572 42.0833 0.00439453H15.3263C11.6713 0.00439453 9.06684 1.99682 7.51282 5.98148C7.46211 6.18796 7.36774 6.56812 7.23734 7.10242H40.3697C40.406 6.98288 40.4226 6.87771 40.4534 6.74911Z" fill="#F90E13"/>
<path d="M67.9111 15.6773C67.8392 15.9143 67.6885 16.1196 67.4839 16.2592C67.2794 16.3989 67.0331 16.4643 66.7862 16.445H51.3241C51.7962 14.3777 52.1581 12.7599 52.4106 11.591L52.6153 10.7164H43.0702C42.9814 11.0786 42.8894 11.4626 42.7898 11.8665C42.0219 15.0059 41.167 18.5072 40.2251 22.3712C39.2833 26.2351 38.0995 31.1018 36.6748 36.9714H45.9413C46.0138 36.6948 46.2005 35.927 46.5024 34.6675C46.8044 33.4082 47.1382 32.0002 47.504 30.4438C47.8518 28.9827 48.1537 27.7152 48.4096 26.6406C48.6542 25.61 48.7866 25.061 48.8155 24.9669H48.7938C48.7938 24.9488 48.8027 24.9417 48.8226 24.9417V24.9669L67.9924 25.0518C69.8232 25.075 71.6056 24.4641 73.037 23.3223C74.461 22.2292 75.4671 20.6806 75.8877 18.9354C76.1788 17.6929 76.5028 16.3498 76.8601 14.9057C77.1481 13.7465 77.4924 12.3407 77.8909 10.7124H69.1969L67.9111 15.6773Z" fill="#F90E13"/>
<path d="M48.801 24.9792H48.8227V24.9536C48.81 24.9536 48.801 24.961 48.801 24.9792Z" fill="#F90E13"/>
<path d="M76.6015 2.88487C75.849 1.95217 74.8903 1.20633 73.801 0.706633C72.7118 0.206946 71.5215 -0.033134 70.3237 0.00487967H52.1192C48.2999 0.00487967 45.6586 2.04249 44.1952 6.11772C44.1463 6.32782 44.065 6.66099 43.9599 7.10293H78.3349C78.2309 5.54581 77.6223 4.06522 76.6015 2.88487Z" fill="#F90E13"/>
<path d="M116.984 2.88427C116.165 1.94445 115.147 1.19838 114.005 0.700298C112.862 0.202224 111.623 -0.0355332 110.377 0.00429167H91.3012C89.4172 -0.0486174 87.5681 0.521845 86.0415 1.62713C84.5146 2.73242 83.3953 4.31071 82.8572 6.11714C82.8101 6.31999 82.7251 6.67307 82.6219 7.10233H118.891C118.739 5.52415 118.068 4.04107 116.984 2.88427Z" fill="#F90E13"/>
<path d="M108.158 13.1918C107.718 15.0175 107.224 17.0374 106.675 19.252C106.125 21.4665 105.449 24.2527 104.648 27.6107C104.59 27.8722 104.444 28.1057 104.234 28.2709C104.023 28.4361 103.762 28.5228 103.494 28.5163H88.5843C88.4153 28.5176 88.2478 28.4843 88.092 28.4185C87.9364 28.3529 87.7955 28.2562 87.6787 28.1343C87.5638 28.0162 87.4791 27.8722 87.4314 27.7147C87.3838 27.5571 87.3746 27.3905 87.405 27.2287C87.5318 26.7723 87.8143 25.6292 88.2526 23.7999C88.691 21.9706 89.1805 19.9511 89.7215 17.7414C90.26 15.5306 90.7306 13.607 91.1327 11.9709L91.4386 10.7248H81.7432L80.0986 17.4824C79.4478 20.1387 78.6391 23.4781 77.6732 27.5002C77.41 28.6636 77.4346 29.8736 77.7449 31.0254C78.0552 32.177 78.642 33.2358 79.454 34.1095C80.2904 35.0566 81.3268 35.8061 82.4883 36.3042C83.6496 36.8022 84.9072 37.0361 86.1699 36.9892H105.115C107.005 37.0855 108.872 36.5316 110.403 35.4194C111.935 34.3071 113.039 32.7037 113.532 30.8763C113.677 30.3063 114.028 28.8619 114.586 26.5425C115.144 24.2228 115.761 21.6868 116.437 18.935C117.113 16.1855 117.68 13.8697 118.138 11.9872L118.442 10.7195H108.75C108.605 11.3299 108.413 12.1268 108.158 13.1918Z" fill="#F90E13"/>
<path d="M146.675 15.6571C146.604 15.8937 146.453 16.0985 146.249 16.2381C146.044 16.3777 145.799 16.4436 145.552 16.4247H130.362L131.646 10.7249H122.228L115.868 36.9313H125.024C125.096 36.6596 125.279 35.8954 125.567 34.6439C125.855 33.3923 126.189 32.0048 126.554 30.4779C126.92 28.9511 127.23 27.6417 127.487 26.5442C127.706 25.5752 127.824 25.066 127.85 25.0081H133.526L140.68 36.991H150.461L143.334 25.0081H146.677C148.496 25.0365 150.268 24.437 151.696 23.311C153.108 22.2065 154.111 20.663 154.547 18.9244C154.838 17.6795 155.157 16.3349 155.505 14.8907C155.784 13.7352 156.123 12.3386 156.519 10.7249H147.978L146.675 15.6571Z" fill="#F90E13"/>
<path d="M155.257 2.88407C154.524 1.95659 153.585 1.21292 152.514 0.712919C151.443 0.212915 150.269 -0.0297459 149.088 0.00408569H131.157C127.392 0.00408569 124.787 2.0334 123.341 6.09173L123.097 7.10213H156.954C156.853 5.55103 156.258 4.07322 155.257 2.88407Z" fill="#F90E13"/>
<path d="M195.808 0.00439453H163.074L161.341 7.10242H194.051L195.808 0.00439453Z" fill="#F90E13"/>
<path d="M166.003 36.9892H174.749L181.302 10.7266H172.657L166.003 36.9892Z" fill="#F90E13"/>
<path d="M196.927 12.8349L196.873 13.0812V13.1626C196.56 14.3024 196.52 15.5003 196.759 16.6581C196.996 17.8159 197.505 18.9008 198.244 19.8241C198.938 20.7355 199.84 21.4682 200.874 21.9599C201.91 22.4518 203.048 22.6887 204.192 22.6516H217.68C217.836 22.648 217.992 22.684 218.131 22.7554C218.269 22.8269 218.388 22.9318 218.477 23.0609C218.575 23.1883 218.637 23.3393 218.657 23.4987C218.675 23.6581 218.651 23.8198 218.586 23.9665C218.55 24.1114 218.486 24.3741 218.405 24.7454C218.323 25.1167 218.224 25.526 218.117 25.9661C218.01 26.4063 217.883 26.9532 217.718 27.6107C217.653 27.8431 217.514 28.0474 217.32 28.1914C217.126 28.3352 216.891 28.4105 216.65 28.4058H193.153C193.099 28.6835 192.966 29.264 192.756 30.1466C192.546 31.0294 192.312 31.9989 192.057 33.0554C191.8 34.1059 191.492 35.4098 191.124 36.9892H217.856C219.665 37.0201 221.43 36.4181 222.844 35.2866C224.257 34.1553 225.267 32.5986 225.724 30.8475C225.76 30.6284 225.871 30.15 226.054 29.4219C226.236 28.6938 226.432 27.8934 226.642 27.0367L227.186 24.8015C227.341 24.1712 227.419 23.8361 227.419 23.7999C227.434 23.7751 227.443 23.7474 227.446 23.7186C227.747 22.5819 227.78 21.3908 227.541 20.2394C227.303 19.0879 226.802 18.0073 226.077 17.0821C225.398 16.1556 224.505 15.4079 223.474 14.9031C222.442 14.3982 221.305 14.1513 220.156 14.1841H206.753C206.599 14.1883 206.447 14.1557 206.308 14.0885C206.17 14.0214 206.051 13.9219 205.958 13.7984C205.859 13.6722 205.788 13.5258 205.75 13.3695C205.712 13.2132 205.708 13.0507 205.739 12.8928C205.775 12.7443 205.839 12.4855 205.931 12.1106C206.023 11.7357 206.112 11.3299 206.219 10.8897C206.23 10.8426 206.246 10.7773 206.259 10.7266H197.473C197.221 11.7106 197.04 12.4135 196.927 12.8349Z" fill="#F90E13"/>
<path d="M231.567 6.74911C231.779 5.87249 232.012 4.91776 232.266 3.88417C232.52 2.85057 232.831 1.5572 233.201 0.00439453H206.442C202.787 0.00439453 200.182 1.99682 198.628 5.98148C198.576 6.18796 198.483 6.56812 198.351 7.10242H231.489C231.511 6.98288 231.538 6.87771 231.567 6.74911Z" fill="#F90E13"/>
<path d="M300.726 0.00439453H289.734L286.523 7.10242H297.307L300.726 0.00439453Z" fill="#F90E13"/>
<path d="M276.82 0.00439453H268.047L268.487 7.10242H277.306L276.82 0.00439453Z" fill="#F90E13"/>
<path d="M258.808 0.00439453H248.909L249.329 7.10242H259.097L258.808 0.00439453Z" fill="#F90E13"/>
<path d="M278.519 24.7869L277.555 10.7249H267.393L259.849 25.5023L259.246 10.7249H249.545L250.664 29.6413C250.777 31.6487 251.66 33.5347 253.133 34.9047C254.551 36.2693 256.453 37.0182 258.422 36.9892H263.77L269.555 25.1731L270.24 36.9892H282.906L295.561 10.7266H284.874L278.519 24.7869Z" fill="#F90E13"/>
<path d="M321.479 26.7904L318.983 36.9892H327.73L334.096 10.7266H325.375L321.479 26.7904Z" fill="#F90E13"/>
<path d="M294.639 36.9892H303.333L305.801 26.8192H318.904L320.986 18.3194H307.855L309.695 10.7266H301.056L294.639 36.9892Z" fill="#F90E13"/>
<path d="M336.693 0.00439453H309.799C306.162 0.00439453 303.622 2.04201 302.179 6.11723L301.938 7.10242H334.973L336.693 0.00439453Z" fill="#F90E13"/>
<path d="M365.673 19.1942L358.509 10.7232H338.209L331.841 36.9857H340.614L346.84 10.9947L362.876 30.0761L361.231 36.9839H369.895L376.234 10.7214H367.601L365.673 19.1942Z" fill="#F90E13"/>
<path d="M378.833 0.00439453H370.059L368.429 7.10242H377.109L378.833 0.00439453Z" fill="#F90E13"/>
<path d="M349.442 0.00439453H347.088C343.465 0.00439453 340.879 2.04201 339.327 6.11723L339.09 7.10242H355.448L349.442 0.00439453Z" fill="#F90E13"/>
<path d="M414.693 2.88416C413.938 1.95429 412.978 1.21064 411.889 0.711235C410.801 0.211824 409.611 -0.0300937 408.414 0.00416898H388.128C386.92 -0.00125016 385.743 0.394481 384.783 1.1291C383.797 1.8271 383.098 2.85531 382.809 4.02677C382.79 4.05116 382.781 4.08161 382.783 4.11211C382.754 4.23889 382.515 5.2404 382.07 7.09689H416.403C416.303 5.54467 415.704 4.06663 414.693 2.88416Z" fill="#F90E13"/>
<path d="M404.985 18.5511C404.42 20.8828 403.904 23.0074 403.438 24.9249C402.973 26.8425 402.676 28.0395 402.547 28.5164H386.065C386.978 24.7527 387.741 21.6227 388.355 19.1269C388.969 16.6311 389.521 14.3604 390.014 12.315C390.158 11.71 390.282 11.194 390.396 10.7249H381.197L379.047 19.6903L376.359 30.8764C375.555 34.2173 375.06 36.255 374.879 36.9892H403.199C406.999 36.9892 409.633 34.9516 411.094 30.8764C412.06 26.8542 412.864 23.5133 413.507 20.8531C414.15 18.1932 414.735 15.7716 415.262 13.5885C415.557 12.3695 415.785 11.433 415.956 10.7249H406.887C406.139 13.8148 405.501 16.4411 404.985 18.5511Z" fill="#F90E13"/>
<path d="M416.037 27.5003C415.745 28.6462 415.734 29.8458 416.008 30.9967C416.28 32.1475 416.827 33.2157 417.6 34.1096C418.346 35.0433 419.299 35.7897 420.384 36.2896C421.469 36.7896 422.657 37.0291 423.85 36.9892H445.585C446.335 33.9355 447.01 31.1211 447.613 28.5455L426.201 28.5164C426.044 28.5227 425.888 28.4914 425.745 28.4249C425.602 28.3584 425.477 28.2588 425.381 28.1344C425.274 28.0116 425.196 27.8665 425.154 27.7098C425.111 27.5532 425.104 27.3885 425.133 27.2288L426.23 22.7334H441.263L443.209 14.2606H428.268L429.123 10.7249H420.083L416.037 27.5003Z" fill="#F90E13"/>
<path d="M454.529 0.00439453H429.116C425.312 0.00439453 422.671 2.04201 421.192 6.11723L420.954 7.10242H452.832L454.529 0.00439453Z" fill="#F90E13"/>
<path d="M480.217 15.6571C480.145 15.8941 479.994 16.0993 479.79 16.239C479.585 16.3786 479.339 16.444 479.092 16.4247H463.904L465.188 10.7249H455.769L449.408 36.9313H458.566C458.638 36.6596 458.821 35.8954 459.109 34.6439C459.397 33.3923 459.731 32.0048 460.096 30.4779C460.462 28.9511 460.772 27.6417 461.029 26.5442C461.248 25.5752 461.366 25.066 461.391 25.0081H467.068L474.222 36.991H484.003L476.875 25.0081H480.221C482.039 25.036 483.811 24.4366 485.238 23.311C486.649 22.2063 487.652 20.663 488.089 18.9244C488.38 17.6795 488.699 16.3349 489.049 14.8907C489.326 13.7352 489.664 12.3386 490.061 10.7249H481.521L480.217 15.6571Z" fill="#F90E13"/>
<path d="M488.797 2.88407C488.063 1.95662 487.125 1.21292 486.055 0.71292C484.984 0.212904 483.811 -0.0297458 482.63 0.0040858H464.699C460.933 0.0040858 458.329 2.0334 456.885 6.09173L456.639 7.10213H490.492C490.391 5.55117 489.797 4.07333 488.797 2.88407Z" fill="#F90E13"/>
</svg>
