<svg xmlns="http://www.w3.org/2000/svg" viewBox="0 0 1090.45 151.87"><g id="Layer_2" data-name="Layer 2"><g id="Layer_1-2" data-name="Layer 1"><g id="Layer_2-2" data-name="Layer 2"><g id="Layer_1-2-2" data-name="Layer 1-2"><path d="M135,0H16.87A16.87,16.87,0,0,0,0,16.87H0V135a16.87,16.87,0,0,0,16.87,16.87H135A16.87,16.87,0,0,0,151.83,135V16.87A16.87,16.87,0,0,0,135,0ZM30.88,59.46c-.19-2-.33-4.06-.39-6.19a94.44,94.44,0,0,1,1.47-20l.55-3h86.81l.55,3c.2,1.12.37,2.25.52,3.34l.14,1H38.63a87.34,87.34,0,0,0-.89,15.07h51.5l-.1.7c-.3,2.21-.64,4.22-1,6.19l-.1.49H30.94Zm90.49-6.19c-.07,2.14-.2,4.22-.4,6.19-.27,2.7-.63,5.32-1.09,7.79a83.59,83.59,0,0,1-14.34,35.1,81.87,81.87,0,0,1-28.12,24.38l-1.71.9L74,126.72a82.16,82.16,0,0,1-27.73-24.39A83.93,83.93,0,0,1,32,67.24c-.06-.35-.12-.69-.17-1l-.09-.6-.12-.71H39l.09.51v.5a77.28,77.28,0,0,0,13,32.18,74.92,74.92,0,0,0,23.56,21.26A74.65,74.65,0,0,0,99.52,98.11a76.72,76.72,0,0,0,13.13-32.17c.35-1.87.64-3.86.87-5.9H100.31c-.56,2.9-1.12,5.3-1.75,7.55A75.25,75.25,0,0,1,88.05,91.52a68.09,68.09,0,0,1-9.9,11.4l-2.45,2.25-2.47-2.25a65.1,65.1,0,0,1-9.92-11.43A62.85,62.85,0,0,1,53.25,67.18c-.06-.35-.11-.7-.15-1a1.31,1.31,0,0,0-.07-.52L52.94,65h7.34l.07.52v.56a55.88,55.88,0,0,0,8.9,21.39c.82,1.2,1.76,2.45,2.85,3.78V71h7.28V90.83c1-1.21,1.82-2.33,2.59-3.45a67.83,67.83,0,0,0,9.5-21.77,93.6,93.6,0,0,0,3.38-22V43l7.27.24v.62c-.09,2.7-.33,5.58-.72,8.79h19.91Z" fill="#f90e13"/><path d="M102.2,43.86v-.62L94.93,43v.61a93.6,93.6,0,0,1-3.38,22,67.83,67.83,0,0,1-9.5,21.77c-.77,1.12-1.62,2.24-2.59,3.45V71H72.18V91.16c-1.09-1.33-2-2.58-2.85-3.78A55.84,55.84,0,0,1,60.43,66v-.56l-.07-.52H52.94l.09.69a4.63,4.63,0,0,0,.07.52,5.62,5.62,0,0,0,.15,1,62.8,62.8,0,0,0,10.06,24.3,65.1,65.1,0,0,0,9.92,11.43l2.47,2.25,2.45-2.25a68.09,68.09,0,0,0,9.9-11.4A75.32,75.32,0,0,0,98.54,67.57c.63-2.25,1.19-4.65,1.75-7.55h13.28c-.23,2-.52,4-.87,5.9A76.72,76.72,0,0,1,99.57,98.09a74.68,74.68,0,0,1-23.88,21.27A74.92,74.92,0,0,1,52.13,98.1a77.28,77.28,0,0,1-13-32.18v-.5L39,64.91H31.59l.12.71.09.6a5.65,5.65,0,0,0,.17,1,84,84,0,0,0,14.26,35.09A82.13,82.13,0,0,0,74,126.68l1.71.91,1.71-.9a81.79,81.79,0,0,0,28.16-24.34A83.55,83.55,0,0,0,120,67.25c.46-2.47.82-5.09,1.09-7.79.2-2,.33-4,.4-6.19v-.63h-20C101.87,49.44,102.11,46.56,102.2,43.86Z" fill="#fff"/><path d="M88.1,59.53c.4-2,.74-4,1-6.19l.1-.7H37.74a87.8,87.8,0,0,1,.89-15.11h81.91l-.14-1c-.15-1.09-.32-2.22-.52-3.34l-.55-3H32.54l-.55,3a94.44,94.44,0,0,0-1.47,20c.06,2.13.2,4.22.39,6.19l.06.56H88Z" fill="#fff"/></g></g><path d="M189.7,65.41l-.1.45V66a13.94,13.94,0,0,0,2.55,12.38,13.32,13.32,0,0,0,11.06,5.25h25.07a1.71,1.71,0,0,1,.83.19,1.91,1.91,0,0,1,1,1.38,1.71,1.71,0,0,1-.12.87c-.08.27-.19.76-.37,1.45s-.33,1.45-.53,2.27-.43,1.83-.74,3.06a2,2,0,0,1-2,1.47H182.67c-.1.52-.34,1.6-.74,3.24s-.82,3.44-1.3,5.41-1,4.37-1.73,7.31h49.68a14.52,14.52,0,0,0,9.27-3.17,15.57,15.57,0,0,0,5.35-8.25c.07-.41.27-1.29.61-2.65s.71-2.84,1.1-4.43.73-3,1-4.15.43-1.8.43-1.87a.25.25,0,0,0,.05-.15,14.1,14.1,0,0,0,.18-6.46,14.25,14.25,0,0,0-2.73-5.87,13.2,13.2,0,0,0-11-5.39H207.94a1.82,1.82,0,0,1-.83-.17,1.8,1.8,0,0,1-.65-.54,2.08,2.08,0,0,1-.41-1.69c.07-.27.19-.75.36-1.45s.34-1.45.53-2.27l.08-.3H190.69C190.24,63.32,189.91,64.63,189.7,65.41Z" fill="#f90e13"/><path d="M254.08,54.1c.39-1.63.83-3.41,1.3-5.33s1.05-4.32,1.73-7.21H207.39q-10.2,0-14.52,11.11c-.1.38-.27,1.09-.52,2.08h61.58C254,54.53,254,54.34,254.08,54.1Z" fill="#f90e13"/><path d="M305.11,70.69a2,2,0,0,1-.79,1.08,2.06,2.06,0,0,1-1.3.35H274.29c.87-3.85,1.55-6.85,2-9l.38-1.63H259c-.17.67-.34,1.39-.53,2.14l-4.76,19.52q-2.62,10.77-6.6,27.13h17.22c.14-.51.48-1.94,1-4.28s1.19-5,1.87-7.85q1-4.06,1.68-7.07c.45-1.91.7-2.93.75-3.11h0s0,0,.06,0v0l35.62.16a14.78,14.78,0,0,0,9.38-3.21,14.59,14.59,0,0,0,5.29-8.16c.55-2.3,1.15-4.8,1.81-7.48.54-2.16,1.18-4.77,1.92-7.8H307.5Z" fill="#f90e13"/><path d="M269.6,88h0v0S269.6,87.94,269.6,88Z" fill="#f90e13"/><path d="M321.26,46.92a14.41,14.41,0,0,0-11.67-5.36H275.76q-10.63,0-14.72,11.36c-.09.39-.25,1-.44,1.83h63.88A13.28,13.28,0,0,0,321.26,46.92Z" fill="#f90e13"/><path d="M396.31,46.91A15.7,15.7,0,0,0,384,41.56H348.58a15.9,15.9,0,0,0-15.69,11.36l-.44,1.83h67.4A13.35,13.35,0,0,0,396.31,46.91Z" fill="#f90e13"/><path d="M379.91,66.07q-1.23,5.09-2.76,11.26t-3.77,15.54a2,2,0,0,1-.77,1.22,2.12,2.12,0,0,1-1.37.46H343.53a2.38,2.38,0,0,1-.91-.18,2.17,2.17,0,0,1-.77-.53,1.88,1.88,0,0,1-.46-.78,1.83,1.83,0,0,1-.05-.9c.23-.85.76-3,1.57-6.38s1.73-7.15,2.73-11.25,1.88-7.69,2.63-10.73l.57-2.31h-18L327.76,74q-1.81,7.41-4.51,18.62a13.67,13.67,0,0,0,3.31,12.28A15.9,15.9,0,0,0,339,110.3h35.21a15.39,15.39,0,0,0,15.64-11.36c.27-1.06.93-3.75,2-8.06s2.19-9,3.44-14.14,2.31-9.41,3.16-12.91l.57-2.35H381C380.74,62.61,380.38,64.09,379.91,66.07Z" fill="#f90e13"/><path d="M451.49,70.65a2.1,2.1,0,0,1-.79,1.08,2.06,2.06,0,0,1-1.3.35H421.17l2.39-10.59H406.05l-11.81,48.7h17c.14-.51.48-1.93,1-4.25s1.16-4.91,1.84-7.74l1.73-7.32c.41-1.8.62-2.74.67-2.85h10.55l13.3,22.27h18.17L445.28,88h6.21a14.72,14.72,0,0,0,9.33-3.15,15,15,0,0,0,5.3-8.16q.81-3.47,1.78-7.49c.52-2.15,1.15-4.75,1.88-7.74H453.91Z" fill="#f90e13"/><path d="M467.44,46.91A14.13,14.13,0,0,0,456,41.56H422.65q-10.5,0-14.53,11.31l-.45,1.88h62.92A13.56,13.56,0,0,0,467.44,46.91Z" fill="#f90e13"/><path d="M542.8,41.56H482l-3.22,13.19h60.79Z" fill="#f90e13"/><path d="M487.41,110.3h16.25l12.18-48.81H499.77Z" fill="#f90e13"/><path d="M544.88,65.41l-.1.45V66a13.7,13.7,0,0,0-.21,6.49,13.84,13.84,0,0,0,2.76,5.89,13.29,13.29,0,0,0,11,5.25h25.07a1.71,1.71,0,0,1,.83.19,1.88,1.88,0,0,1,.65.57,1.74,1.74,0,0,1,.33.81,1.72,1.72,0,0,1-.13.87c-.07.27-.19.76-.34,1.45s-.33,1.45-.53,2.27-.44,1.83-.74,3.06a2,2,0,0,1-.74,1.08,2.06,2.06,0,0,1-1.25.39H537.86c-.1.52-.34,1.6-.73,3.24s-.83,3.44-1.3,5.41-1.05,4.37-1.74,7.31h49.68a14.52,14.52,0,0,0,9.27-3.17,15.51,15.51,0,0,0,5.35-8.25c.07-.41.28-1.29.62-2.65s.7-2.84,1.09-4.43l1-4.15c.29-1.18.43-1.8.43-1.87a.34.34,0,0,0,.06-.15,14.17,14.17,0,0,0-2.55-12.33,13.2,13.2,0,0,0-11-5.39H563.14a1.82,1.82,0,0,1-.83-.17,1.8,1.8,0,0,1-.65-.54,2.08,2.08,0,0,1-.41-1.69c.07-.27.19-.75.36-1.45s.34-1.45.54-2.27l.07-.3H545.89C545.42,63.32,545.09,64.62,544.88,65.41Z" fill="#f90e13"/><path d="M609.25,54.1l1.3-5.33q.71-2.88,1.74-7.21H562.56q-10.18,0-14.52,11.11c-.1.38-.27,1.09-.52,2.08h61.59C609.15,54.53,609.2,54.34,609.25,54.1Z" fill="#f90e13"/><path d="M737.78,41.56H717.35l-6,13.19h20Z" fill="#f90e13"/><path d="M693.35,41.56h-16.3l.82,13.19h16.38Z" fill="#f90e13"/><path d="M659.88,41.56h-18.4l.78,13.19h18.16Z" fill="#f90e13"/><path d="M696.51,87.62l-1.79-26.13H675.83L661.81,89l-1.12-27.46h-18l2.08,35.15a14.48,14.48,0,0,0,4.59,9.78,13.9,13.9,0,0,0,9.83,3.88h9.94l10.75-22,1.27,22h23.54l23.52-48.81H708.32Z" fill="#f90e13"/><path d="M776.35,91.34l-4.64,19H788L799.8,61.49H783.59Z" fill="#f90e13"/><path d="M726.47,110.3h16.15l4.59-18.9h24.35l3.87-15.8H751l3.42-14.11H738.39Z" fill="#f90e13"/><path d="M804.62,41.56h-50q-10.14,0-14.16,11.36L740,54.75h61.39Z" fill="#f90e13"/><path d="M858.48,77.22,845.17,61.48H807.44L795.6,110.29h16.31L823.48,62l29.8,35.46-3.06,12.84h16.1l11.79-48.81H862.06Z" fill="#f90e13"/><path d="M882.94,41.56H866.63l-3,13.19h16.13Z" fill="#f90e13"/><path d="M828.32,41.56h-4.38q-10.1,0-14.42,11.36l-.44,1.83h30.4Z" fill="#f90e13"/><path d="M949.58,46.91a14.55,14.55,0,0,0-11.67-5.35h-37.7A10.2,10.2,0,0,0,894,43.65,9.37,9.37,0,0,0,890.32,49a.22.22,0,0,0,0,.16c-.06.23-.5,2.09-1.33,5.54h63.81A13.41,13.41,0,0,0,949.58,46.91Z" fill="#f90e13"/><path d="M931.54,76l-2.88,11.85q-1.29,5.34-1.65,6.67H896.38q2.54-10.48,4.25-17.45t3.08-12.66l.71-2.95H887.33l-4,16.66-5,20.79-2.75,11.36h52.63q10.59,0,14.67-11.36,2.68-11.22,4.48-18.63l3.27-13.5c.54-2.27,1-4,1.29-5.32H935.07C933.68,67.23,932.5,72.11,931.54,76Z" fill="#f90e13"/><path d="M952.08,92.66a13.49,13.49,0,0,0-.06,6.5,13.63,13.63,0,0,0,3,5.78,14.31,14.31,0,0,0,5.17,4.06,14.48,14.48,0,0,0,6.45,1.3H1007q2.09-8.52,3.77-15.7l-39.79,0a1.88,1.88,0,0,1-.85-.17,1.8,1.8,0,0,1-.68-.54,2,2,0,0,1-.42-.79,2.06,2.06,0,0,1,0-.89l2-8.36H999l3.61-15.74H974.81l1.59-6.57H959.6Z" fill="#f90e13"/><path d="M1023.61,41.56H976.38q-10.61,0-14.72,11.36l-.44,1.83h59.24Z" fill="#f90e13"/><path d="M1071.35,70.65a2,2,0,0,1-.79,1.08,2.06,2.06,0,0,1-1.3.35H1041l2.39-10.59h-17.5l-11.82,48.7h17c.14-.51.48-1.93,1-4.25s1.16-4.91,1.84-7.74,1.25-5.28,1.73-7.32c.41-1.8.63-2.74.67-2.85h10.55l13.3,22.27h18.18L1065.14,88h6.22a14.69,14.69,0,0,0,9.32-3.15,15,15,0,0,0,5.3-8.16q.81-3.47,1.78-7.49c.52-2.15,1.15-4.75,1.89-7.74h-15.88Z" fill="#f90e13"/><path d="M1087.3,46.91a14.13,14.13,0,0,0-11.47-5.35h-33.32q-10.5,0-14.52,11.31l-.46,1.88h62.92A13.63,13.63,0,0,0,1087.3,46.91Z" fill="#f90e13"/></g></g></svg>